<svg width="56" height="55" viewBox="0 0 56 55" fill="none" xmlns="http://www.w3.org/2000/svg">
<g clip-path="url(#clip0_47_181)">
<g clip-path="url(#clip1_47_181)">
<g clip-path="url(#clip2_47_181)">
<path d="M28.0055 0.350586C12.9393 0.350586 0.730469 12.5594 0.730469 27.6256C0.730469 42.6918 12.9393 54.9006 28.0055 54.9006C43.0717 54.9006 55.2805 42.6918 55.2805 27.6256C55.2569 12.5594 43.048 0.350586 28.0055 0.350586ZM42.6938 17.0934L37.3805 42.0069C37.1207 43.2585 35.6566 43.8017 34.6412 43.046L22.0309 33.6473L35.9636 21.0607C35.9636 21.0607 36.9082 20.2814 36.6485 20.0453C36.3651 19.7619 35.326 20.3759 34.8065 20.7301C34.2634 21.1315 17.7331 31.5692 17.7331 31.5692L9.34984 28.9716C8.40525 28.6882 8.40525 27.3894 9.77491 26.8227L40.5685 14.9681C41.9145 14.3069 42.9772 15.8182 42.6938 17.0934Z" fill="white"/>
</g>
</g>
</g>
<defs>
<clipPath id="clip0_47_181">
<rect width="54.55" height="54.55" fill="white" transform="translate(0.730469 0.350586)"/>
</clipPath>
<clipPath id="clip1_47_181">
<rect width="54.55" height="54.55" fill="white" transform="translate(0.730469 0.350586)"/>
</clipPath>
<clipPath id="clip2_47_181">
<rect width="54.55" height="54.55" fill="white" transform="translate(0.730469 0.350586)"/>
</clipPath>
</defs>
</svg>
