<svg width="61" height="61" viewBox="0 0 61 61" fill="none" xmlns="http://www.w3.org/2000/svg">
<g clip-path="url(#clip0_47_170)">
<g clip-path="url(#clip1_47_170)">
<g clip-path="url(#clip2_47_170)">
<path d="M60.4695 51.1518C60.4695 56.1972 56.3662 60.3006 51.3207 60.3006H9.41834C4.37289 60.3006 0.269531 56.1972 0.269531 51.1518V9.2494C0.269531 4.20394 4.37289 0.100586 9.41834 0.100586H51.3207C56.3662 0.100586 60.4695 4.20394 60.4695 9.2494V51.1518Z" fill="white"/>
<path d="M51.7075 30.6767C51.7075 34.0054 51.7075 37.5331 50.9643 40.7571C50.4409 43.0286 48.5882 44.693 46.3481 44.9442C41.0619 45.5304 35.7024 45.5409 30.3743 45.5304C25.0357 45.5304 19.6972 45.5304 14.4005 44.9442C12.1709 44.693 10.3076 43.0286 9.78423 40.7571C9.04102 37.5331 9.04102 34.0054 9.04102 30.6767C9.04102 27.348 9.05148 23.8203 9.78423 20.5963C10.3076 18.3248 12.1604 16.6604 14.4005 16.4092C19.6972 15.8125 25.0462 15.8125 30.3743 15.8125C35.7024 15.8125 41.0514 15.8125 46.3481 16.4092C48.5777 16.6604 50.4409 18.3248 50.9643 20.5963C51.7075 23.8203 51.7075 27.348 51.7075 30.6767Z" fill="#41B066"/>
<path d="M25.8828 22.7422V38.6846L38.2662 30.7081L25.8828 22.7422Z" fill="white"/>
</g>
</g>
</g>
<defs>
<clipPath id="clip0_47_170">
<rect width="60.2" height="60.2" fill="white" transform="translate(0.269531 0.100586)"/>
</clipPath>
<clipPath id="clip1_47_170">
<rect width="60.2" height="60.2" fill="white" transform="translate(0.269531 0.100586)"/>
</clipPath>
<clipPath id="clip2_47_170">
<rect width="60.2" height="60.2" fill="white" transform="translate(0.269531 0.100586)"/>
</clipPath>
</defs>
</svg>
