<svg width="51" height="51" viewBox="0 0 51 51" fill="none" xmlns="http://www.w3.org/2000/svg">
<g clip-path="url(#clip0_48_288)">
<g clip-path="url(#clip1_48_288)">
<g clip-path="url(#clip2_48_288)">
<g clip-path="url(#clip3_48_288)">
<path d="M25.2351 0.201172C11.4972 0.201172 0.330078 11.3683 0.330078 25.1062C0.330078 38.8441 11.4972 50.0112 25.2351 50.0112C38.973 50.0112 50.1401 38.8441 50.1401 25.1062C50.1401 11.3683 38.973 0.201172 25.2351 0.201172ZM39.2301 27.5163H27.6452V39.1011C27.6452 40.4187 26.5687 41.5113 25.2351 41.5113C23.9014 41.5113 22.8249 40.4187 22.8249 39.1011V27.5163H11.24C9.92247 27.5163 8.82988 26.4397 8.82988 25.1062C8.82988 23.7725 9.92247 22.696 11.24 22.696H22.8249V11.1111C22.8249 9.79357 23.9014 8.70098 25.2351 8.70098C26.5687 8.70098 27.6452 9.79357 27.6452 11.1111V22.696H39.2301C40.5477 22.696 41.6403 23.7725 41.6403 25.1062C41.6403 26.4397 40.5477 27.5163 39.2301 27.5163Z" fill="#A680D2"/>
</g>
</g>
</g>
</g>
<defs>
<clipPath id="clip0_48_288">
<rect width="49.81" height="49.81" fill="white" transform="translate(0.330078 0.201172)"/>
</clipPath>
<clipPath id="clip1_48_288">
<rect width="49.81" height="49.81" fill="white" transform="translate(0.330078 0.201172)"/>
</clipPath>
<clipPath id="clip2_48_288">
<rect width="49.81" height="49.81" fill="white" transform="translate(0.330078 0.201172)"/>
</clipPath>
<clipPath id="clip3_48_288">
<rect width="49.81" height="49.81" fill="white" transform="translate(0.330078 0.201172)"/>
</clipPath>
</defs>
</svg>
