<svg width="39" height="38" viewBox="0 0 39 38" fill="none" xmlns="http://www.w3.org/2000/svg">
<g clip-path="url(#clip0_48_146)">
<g clip-path="url(#clip1_48_146)">
<g clip-path="url(#clip2_48_146)">
<path d="M19.545 37.6002C29.8092 37.6002 38.13 29.2794 38.13 19.0152C38.13 8.75096 29.8092 0.430176 19.545 0.430176C9.28075 0.430176 0.959961 8.75096 0.959961 19.0152C0.959961 29.2794 9.28075 37.6002 19.545 37.6002Z" fill="#41B066"/>
<path d="M29.7487 15.5044C30.7433 14.5092 30.743 12.8963 29.7479 11.9015C28.7528 10.9069 27.1397 10.9071 26.1451 11.9025L17.3277 20.7237L12.9262 16.3221C11.9313 15.3273 10.3181 15.3273 9.32329 16.3221C8.32844 17.317 8.32844 18.9302 9.32329 19.925L15.5268 26.1285C16.0047 26.6064 16.6528 26.8747 17.3285 26.8747C18.0044 26.8747 18.6525 26.6059 19.1302 26.128L29.7487 15.5044Z" fill="#F2F2F2"/>
</g>
</g>
</g>
<defs>
<clipPath id="clip0_48_146">
<rect width="37.17" height="37.17" fill="white" transform="translate(0.959961 0.430176)"/>
</clipPath>
<clipPath id="clip1_48_146">
<rect width="37.17" height="37.17" fill="white" transform="translate(0.959961 0.430176)"/>
</clipPath>
<clipPath id="clip2_48_146">
<rect width="37.17" height="37.17" fill="white" transform="translate(0.959961 0.430176)"/>
</clipPath>
</defs>
</svg>
